<svg t="1587435373006" viewBox="0 0 1029 1024" version="1.1" xmlns="http://www.w3.org/2000/svg" p-id="4295" width="32" height="32"><path d="M2.273103 512.962207C2.184828 230.859034 231.362207 1.69931 513.377103 1.893517 795.29931 2.087724 1024.022069 230.845793 1024.105931 512.697379 1024.189793 794.818207 795.144828 1023.819034 512.979862 1023.730759 231.106207 1023.638069 2.356966 794.866759 2.273103 512.962207L2.273103 512.962207ZM66.070069 512.662069C65.915586 759.296 266.262069 959.726345 513.160828 959.938207 759.538759 960.150069 959.823448 759.997793 960.048552 513.341793 960.278069 266.217931 760.779034 66.317241 513.513931 65.906759 266.866759 65.496276 66.220138 265.829517 66.070069 512.662069L66.070069 512.662069ZM705.739034 417.103448C704.044138 496.878345 656.233931 566.135172 582.121931 594.988138 575.774897 597.459862 569.445517 600.059586 563.36331 603.109517 551.746207 608.940138 545.527172 618.425379 545.103448 631.591724 544.926897 637.078069 545.160828 642.718897 543.96469 648.006621 540.468966 663.450483 525.700414 673.990621 510.72 672.388414 493.810759 670.578759 482.01269 657.906759 481.37269 641.222621 479.638069 596.215172 498.401103 563.442759 539.286069 543.841103 544.825379 541.188414 550.444138 538.632828 556.217379 536.553931 611.67669 516.581517 646.404414 461.784276 640.251586 403.764966 634.067862 345.472 588.089379 298.028138 530.387862 290.476138 454.867862 280.589241 387.963586 337.527172 385.460966 413.576828 385.324138 417.739034 385.134345 422.033655 384.026483 426.001655 379.806897 441.101241 364.57931 450.992552 349.581241 448.768 333.051586 446.318345 321.390345 433.222621 321.597793 416.242759 322.171586 369.262345 336.900414 327.044414 368.322207 292.073931 419.954759 234.619586 484.859586 212.82869 559.699862 231.750621 635.264 250.853517 682.07669 301.245793 700.32331 377.224828 703.439448 390.201379 704 403.795862 705.739034 417.103448L705.739034 417.103448ZM481.399172 784.472276C481.399172 778.743172 481.257931 773.009655 481.430069 767.284966 481.946483 749.956414 495.730759 736.507586 512.93131 736.406069 530.109793 736.308966 544.384 749.585655 544.993103 766.786207 545.399172 778.231172 545.346207 789.707034 545.024 801.156414 544.529655 818.754207 530.304 832.150069 512.768 831.982345 495.505655 831.814621 481.92 818.436414 481.421241 800.997517 481.262345 795.493517 481.394759 789.98069 481.399172 784.472276L481.399172 784.472276Z" p-id="4296"></path></svg>
